#N canvas 294 150 446 486 10;
#X obj 147 75 inlet;
#X obj 245 75 inlet;
#X text 287 75 gate;
#X text 188 73 number;
#X obj 147 169 spigot;
#X obj 245 115 == 0;
#X obj 147 355 outlet;
#X obj 246 355 outlet;
#X text 299 355 max value;
#X text 77 354 number mod;
#X obj 85 169 spigot;
#X obj 298 264 max;
#X obj 85 294 mod \$1;
#X obj 246 264 int \$1;
#X obj 246 158 int \$1;
#X obj 85 111 route float bang;
#X obj 246 199 spigot;
#X connect 0 0 15 0;
#X connect 1 0 5 0;
#X connect 1 0 10 1;
#X connect 4 0 6 0;
#X connect 4 0 11 0;
#X connect 5 0 4 1;
#X connect 5 0 16 1;
#X connect 10 0 12 0;
#X connect 11 0 13 0;
#X connect 12 0 6 0;
#X connect 13 0 11 1;
#X connect 13 0 7 0;
#X connect 13 0 12 1;
#X connect 14 0 16 0;
#X connect 15 0 10 0;
#X connect 15 0 4 0;
#X connect 15 1 14 0;
#X connect 16 0 13 0;
