#N canvas 789 28 802 971 10;
#X obj -4 667 outlet~;
#X obj 97 773 inlet~;
#X obj 61 874 delwrite~ d 10000;
#X text 444 607 feedback;
#X obj 309 608 hsl 128 15 0 127 0 0 empty empty empty -2 -8 0 10 -262144
-1 -1 0 1;
#X obj 363 375 key;
#X obj 85 155 timer;
#X obj 363 400 sel 32;
#X obj 150 78 + 1;
#X obj 106 78 int 0;
#X msg 133 52 0;
#X obj 305 376 key;
#X obj 305 400 sel 120;
#X text 333 528 reset;
#X text 334 549 tap;
#X obj 85 342 swap;
#X obj 129 637 *~;
#X obj 424 506 tgl 15 0 empty empty empty 17 7 0 10 -262144 -1 -1 0
1;
#X text 444 583 delay scale;
#X obj 306 766 sig~;
#X obj 306 826 s~ del-ratio;
#X obj -4 617 catch~ del-sum;
#X obj 85 386 pack f f f;
#X obj 192 84 / 100;
#X obj 192 57 random 100;
#X obj 85 106 sel 0;
#X obj 112 131 bng 15 250 50 0 empty empty empty 17 7 0 10 -262144
-1 -1;
#X obj 85 131 bng 15 250 50 0 empty empty empty 17 7 0 10 -262144 -1
-1;
#X obj 230 634 / 127;
#X obj 305 441 loadbang;
#X obj 61 681 xfade;
#X obj 61 650 /~ 2;
#X obj 76 710 limiter~;
#X obj 61 772 *~;
#X obj 61 739 z~ 64;
#X obj 129 537 vd~ d;
#X obj 129 456 r max-del;
#X obj 154 322 s max-del;
#X obj 144 608 &&;
#X obj 144 583 bang;
#X obj 527 767 s tap-lp;
#X obj 491 744 s tap-vca;
#X text 442 505 inf. repeat;
#X obj 394 529 hradio 15 1 0 3 empty empty empty 0 -8 0 10 -262144
-1 -1 1;
#X text 444 527 vca/both/lp;
#X obj 394 441 loadbang;
#X msg 394 469 1;
#X obj 491 715 <= 1;
#X obj 527 715 >= 1;
#X msg 305 468 0;
#X obj 394 556 hradio 15 1 0 3 empty empty empty 0 -8 0 10 -262144
-1 -1 1;
#X obj 305 529 bng 15 250 50 0 empty empty empty 17 7 0 10 -262144
-1 -1;
#X obj 305 550 bng 15 250 50 0 empty empty empty 17 7 0 10 -262144
-1 -1;
#X obj 519 807 == 2;
#X obj 486 843 s overdub;
#X obj 519 865 s replace;
#X obj 154 263 r overdub;
#X obj 257 559 s reset;
#X obj 133 23 r reset;
#X obj 192 23 r tap;
#X obj 256 584 s tap;
#X obj 85 430 taps;
#X obj 230 658 s feedback;
#X obj 563 534 s repeat;
#X obj 103 681 r feedback;
#X obj 178 583 r repeat;
#X obj 21 156 r reset;
#X obj 159 560 > 1;
#X obj 85 293 modulo-max 1;
#X obj 175 190 r replace;
#X obj 106 218 modulo-max 1;
#X obj 486 807 != 1;
#X text 441 554 overdub/overwrite;
#X obj 129 485 sig~;
#X obj 167 485 r~ del-ratio;
#X obj 129 512 *~;
#X floatatom 49 513 5 0 0 0 - - -;
#X obj 308 632 hsl 128 15 0 127 0 0 empty empty empty -2 -8 0 10 -262144
-1 -1 12700 1;
#X obj 231 682 / 127;
#X obj 231 709 s velocity;
#X text 443 630 velocity;
#X obj 423 655 tgl 15 0 empty empty empty 17 7 0 10 -262144 -1 -1 0
1;
#X text 445 654 rand. velo;
#X obj 585 698 s rand-velo;
#X obj 142 121 r velocity;
#X obj 142 155 switcher;
#X obj 211 121 r rand-velo;
#X msg 268 469 127;
#X obj 309 585 hsl 128 15 0 127 0 0 empty empty empty -2 -8 0 10 -262144
-1 -1 6000 1;
#X obj 306 739 expr exp(($f1/127-0.5)*5);
#X msg 343 467 64;
#X obj 306 792 lop~ 0.3;
#X obj 61 801 hip~ 1;
#X obj 61 823 hip~ 1;
#X obj 61 845 hip~ 1;
#X connect 1 0 2 0;
#X connect 4 0 28 0;
#X connect 5 0 7 0;
#X connect 6 0 68 0;
#X connect 7 0 52 0;
#X connect 8 0 9 1;
#X connect 9 0 8 0;
#X connect 9 0 25 0;
#X connect 9 0 70 0;
#X connect 10 0 9 1;
#X connect 11 0 12 0;
#X connect 12 0 51 0;
#X connect 15 0 22 0;
#X connect 15 1 22 1;
#X connect 16 0 30 1;
#X connect 17 0 63 0;
#X connect 19 0 91 0;
#X connect 21 0 31 0;
#X connect 21 0 0 0;
#X connect 22 0 61 0;
#X connect 23 0 85 1;
#X connect 24 0 23 0;
#X connect 25 0 27 0;
#X connect 25 1 26 0;
#X connect 26 0 6 1;
#X connect 27 0 6 0;
#X connect 27 0 6 1;
#X connect 28 0 62 0;
#X connect 29 0 49 0;
#X connect 29 0 90 0;
#X connect 29 0 87 0;
#X connect 30 0 32 0;
#X connect 30 0 34 0;
#X connect 31 0 30 0;
#X connect 32 0 33 1;
#X connect 33 0 92 0;
#X connect 34 0 33 0;
#X connect 35 0 16 0;
#X connect 36 0 67 0;
#X connect 36 0 73 0;
#X connect 36 0 76 0;
#X connect 38 0 16 1;
#X connect 39 0 38 0;
#X connect 43 0 47 0;
#X connect 43 0 48 0;
#X connect 45 0 46 0;
#X connect 46 0 43 0;
#X connect 46 0 50 0;
#X connect 46 0 81 0;
#X connect 47 0 41 0;
#X connect 48 0 40 0;
#X connect 49 0 4 0;
#X connect 49 0 17 0;
#X connect 50 0 53 0;
#X connect 50 0 71 0;
#X connect 51 0 57 0;
#X connect 52 0 60 0;
#X connect 53 0 55 0;
#X connect 56 0 68 1;
#X connect 58 0 10 0;
#X connect 59 0 24 0;
#X connect 59 0 9 0;
#X connect 64 0 30 2;
#X connect 65 0 38 0;
#X connect 66 0 68 0;
#X connect 66 0 70 0;
#X connect 67 0 38 1;
#X connect 67 0 39 0;
#X connect 68 0 15 0;
#X connect 68 1 37 0;
#X connect 69 0 70 1;
#X connect 70 0 15 1;
#X connect 71 0 54 0;
#X connect 73 0 75 0;
#X connect 74 0 75 1;
#X connect 75 0 35 0;
#X connect 77 0 78 0;
#X connect 78 0 79 0;
#X connect 81 0 83 0;
#X connect 84 0 85 0;
#X connect 85 0 22 2;
#X connect 86 0 85 2;
#X connect 87 0 77 0;
#X connect 88 0 89 0;
#X connect 89 0 19 0;
#X connect 90 0 88 0;
#X connect 91 0 20 0;
#X connect 92 0 93 0;
#X connect 93 0 94 0;
#X connect 94 0 2 0;
#X coords 0 -1 1 1 250 200 1 300 500;
