#N canvas 445 163 763 580 10;
#X obj 20 17 blup~;
#X obj 93 17 pish~;
#X obj 158 42 +~;
#X obj 209 17 tgl 15 0 empty empty input_on 17 7 0 10 -262144 -1 -1
0 1;
#X obj 209 40 * 0.5;
#X obj 158 67 *~;
#X obj 156 332 vu 15 120 inmeter empty -1 -8 0 10 -66577 -1 1 0;
#X obj 194 294 s inmeter;
#X obj 154 295 - 100;
#X obj 154 274 env~ 2048;
#X obj 283 403 output~;
#X obj 283 153 catch~ \$0-input;
#X obj 92 93 throw~ \$0-input;
#X obj 158 92 throw~ \$0-input;
#X obj 580 227 readsf~;
#X obj 580 179 bng 15 250 50 0 empty empty empty 17 7 0 10 -262144
-1 -1;
#X obj 580 202 t b b;
#X msg 580 252 1;
#X obj 580 277 throw~ \$0-input;
#X obj 580 375 readsf~;
#X obj 580 302 bng 15 250 50 0 empty empty empty 17 7 0 10 -262144
-1 -1;
#X obj 580 325 t b b;
#X msg 580 350 1;
#X obj 580 400 throw~ \$0-input;
#X obj 580 473 readsf~;
#X obj 580 425 bng 15 250 50 0 empty empty empty 17 7 0 10 -262144
-1 -1;
#X obj 580 448 t b b;
#X msg 580 498 1;
#X obj 580 523 throw~ \$0-input;
#X msg 632 227 open funk-kit.wav;
#X msg 613 360 open ericderr.wav;
#X msg 617 474 open piano.wav;
#X obj 283 188 multitap;
#X obj 605 14 key;
#X obj 575 120 s pish;
#X obj 605 70 s blup;
#X floatatom 520 42 5 0 0 0 - - -;
#X obj 605 45 select 9;
#X obj 575 95 select 96;
#X obj 19 117 throw~ \$0-input;
#X obj 158 17 adc~;
#X msg 27 202 \; pd dsp 1;
#X obj 27 177 loadbang;
#X obj 368 489 writesf~;
#X msg 412 445 start;
#X msg 413 424 open sound.wav;
#X msg 412 466 stop;
#X connect 0 0 39 0;
#X connect 1 0 12 0;
#X connect 2 0 5 0;
#X connect 3 0 4 0;
#X connect 4 0 5 1;
#X connect 5 0 13 0;
#X connect 8 0 7 0;
#X connect 9 0 8 0;
#X connect 11 0 32 0;
#X connect 14 0 18 0;
#X connect 15 0 16 0;
#X connect 16 0 17 0;
#X connect 16 1 29 0;
#X connect 17 0 14 0;
#X connect 19 0 23 0;
#X connect 20 0 21 0;
#X connect 21 0 22 0;
#X connect 21 1 30 0;
#X connect 22 0 19 0;
#X connect 24 0 28 0;
#X connect 25 0 26 0;
#X connect 26 0 27 0;
#X connect 26 1 31 0;
#X connect 27 0 24 0;
#X connect 29 0 14 0;
#X connect 30 0 19 0;
#X connect 31 0 24 0;
#X connect 32 0 10 0;
#X connect 32 0 9 0;
#X connect 32 0 10 1;
#X connect 32 0 43 0;
#X connect 33 0 36 0;
#X connect 33 0 37 0;
#X connect 33 0 38 0;
#X connect 37 0 35 0;
#X connect 38 0 34 0;
#X connect 40 0 2 0;
#X connect 40 1 2 1;
#X connect 42 0 41 0;
#X connect 44 0 43 0;
#X connect 45 0 43 0;
#X connect 46 0 43 0;
