#N canvas 519 174 450 300 10;
#X obj 102 111 spigot;
#X obj 162 111 spigot;
#X obj 195 51 inlet;
#X obj 102 50 inlet;
#X obj 135 81 == 0;
#X obj 102 170 outlet;
#X obj 162 24 inlet;
#X connect 0 0 5 0;
#X connect 1 0 5 0;
#X connect 2 0 1 1;
#X connect 2 0 4 0;
#X connect 3 0 0 0;
#X connect 4 0 0 1;
#X connect 6 0 1 0;
