#N canvas 564 191 563 593 10;
#X obj 116 301 vd~ d;
#X obj 131 165 sig~;
#X obj 116 273 *~;
#X obj 131 47 inlet;
#X obj 116 241 r~ del-ratio;
#X obj 173 483 throw~ del-sum;
#X obj 173 447 *~;
#X obj 131 84 unpack f f;
#X obj 353 305 int \$1;
#X obj 353 278 loadbang;
#X obj 338 404 *;
#X obj 353 338 & 1;
#X obj 353 371 expr $f1 * 2 - 1;
#X obj 182 21 r reset;
#X msg 182 46 10 0;
#X obj 173 406 lop~;
#X obj 227 99 r tap-lp;
#X text 409 337 odd taps are negated;
#X obj 371 143 r tap-vca;
#X obj 194 126 spigot;
#X obj 338 171 spigot;
#X obj 206 148 sel 0;
#X obj 348 195 sel 0;
#X msg 206 174 1;
#X msg 348 221 1;
#X floatatom 402 437 5 0 0 0 - - -;
#X text 445 438 vca;
#X floatatom 402 462 5 0 0 0 - - -;
#X text 445 463 lp;
#X obj 194 375 exp;
#X obj 233 202 float;
#X obj 233 175 bang;
#X obj 375 249 float;
#X obj 375 222 bang;
#X obj 194 343 * 12;
#X floatatom 403 492 5 0 0 0 - - -;
#X text 448 493 delay;
#X obj 311 540 snapshot~;
#X obj 311 517 metro 100;
#X obj 311 470 loadbang;
#X msg 311 493 1;
#X connect 0 0 15 0;
#X connect 1 0 2 1;
#X connect 2 0 0 0;
#X connect 2 0 37 0;
#X connect 3 0 7 0;
#X connect 4 0 2 0;
#X connect 6 0 5 0;
#X connect 7 0 1 0;
#X connect 7 1 19 0;
#X connect 7 1 20 0;
#X connect 7 1 30 1;
#X connect 7 1 32 1;
#X connect 8 0 11 0;
#X connect 9 0 8 0;
#X connect 10 0 6 1;
#X connect 10 0 25 0;
#X connect 11 0 12 0;
#X connect 12 0 10 1;
#X connect 13 0 14 0;
#X connect 14 0 7 0;
#X connect 15 0 6 0;
#X connect 16 0 19 1;
#X connect 16 0 21 0;
#X connect 18 0 20 1;
#X connect 18 0 22 0;
#X connect 19 0 34 0;
#X connect 20 0 10 0;
#X connect 21 0 23 0;
#X connect 21 1 31 0;
#X connect 22 0 24 0;
#X connect 22 1 33 0;
#X connect 23 0 34 0;
#X connect 24 0 10 0;
#X connect 29 0 15 1;
#X connect 29 0 27 0;
#X connect 30 0 34 0;
#X connect 31 0 30 0;
#X connect 32 0 10 0;
#X connect 33 0 32 0;
#X connect 34 0 29 0;
#X connect 37 0 35 0;
#X connect 38 0 37 0;
#X connect 39 0 40 0;
#X connect 40 0 38 0;
