#N canvas 176 79 448 638 10;
#X obj 53 127 route 0 1 2 3 4 5 6 7 8 9 10 11 12 13 14 15;
#X obj 53 78 inlet;
#X obj 113 103 print tap;
#X obj 53 160 tap 0;
#X obj 53 373 route 0 1 2 3 4 5 6 7 8 9 10 11 12 13 14 15;
#X obj 116 161 tap 4;
#X obj 68 181 tap 1;
#X obj 84 202 tap 2;
#X obj 100 223 tap 3;
#X obj 132 182 tap 5;
#X obj 148 202 tap 6;
#X obj 164 223 tap 7;
#X obj 180 164 tap 8;
#X obj 196 185 tap 9;
#X obj 212 206 tap 10;
#X obj 228 227 tap 11;
#X obj 244 165 tap 12;
#X obj 260 186 tap 13;
#X obj 276 206 tap 14;
#X obj 292 227 tap 15;
#X obj 116 407 tap 4;
#X obj 53 406 tap 0;
#X obj 68 427 tap 1;
#X obj 84 448 tap 2;
#X obj 100 469 tap 3;
#X obj 132 428 tap 5;
#X obj 148 448 tap 6;
#X obj 164 469 tap 7;
#X obj 180 410 tap 8;
#X obj 196 431 tap 9;
#X obj 212 452 tap 10;
#X obj 228 473 tap 11;
#X obj 244 411 tap 12;
#X obj 260 432 tap 13;
#X obj 276 452 tap 14;
#X obj 292 473 tap 15;
#X obj 53 293 unpack f f f;
#X obj 53 319 - 16;
#X obj 53 345 pack f f f;
#X obj 308 403 print overflow;
#X connect 0 0 3 0;
#X connect 0 1 6 0;
#X connect 0 2 7 0;
#X connect 0 3 8 0;
#X connect 0 4 5 0;
#X connect 0 5 9 0;
#X connect 0 6 10 0;
#X connect 0 7 11 0;
#X connect 0 8 12 0;
#X connect 0 9 13 0;
#X connect 0 10 14 0;
#X connect 0 11 15 0;
#X connect 0 12 16 0;
#X connect 0 13 17 0;
#X connect 0 14 18 0;
#X connect 0 15 19 0;
#X connect 0 16 36 0;
#X connect 1 0 0 0;
#X connect 1 0 2 0;
#X connect 4 0 21 0;
#X connect 4 1 22 0;
#X connect 4 2 23 0;
#X connect 4 3 24 0;
#X connect 4 4 20 0;
#X connect 4 5 25 0;
#X connect 4 6 26 0;
#X connect 4 7 27 0;
#X connect 4 8 28 0;
#X connect 4 9 29 0;
#X connect 4 10 30 0;
#X connect 4 11 31 0;
#X connect 4 12 32 0;
#X connect 4 13 33 0;
#X connect 4 14 34 0;
#X connect 4 15 35 0;
#X connect 4 16 39 0;
#X connect 36 0 37 0;
#X connect 36 1 38 1;
#X connect 36 2 38 2;
#X connect 37 0 38 0;
#X connect 38 0 4 0;
