#N canvas 646 140 450 300 10;
#X obj 143 80 inlet~;
#X obj 196 80 inlet~;
#X obj 263 80 inlet;
#X obj 144 144 *~;
#X obj 196 144 *~;
#X obj 168 211 outlet~;
#X obj 229 121 expr 1 - $f1;
#X obj 343 48 loadbang;
#X msg 343 72 0;
#X connect 0 0 3 0;
#X connect 1 0 4 0;
#X connect 2 0 3 1;
#X connect 2 0 6 0;
#X connect 3 0 5 0;
#X connect 4 0 5 0;
#X connect 6 0 4 1;
#X connect 7 0 8 0;
#X connect 8 0 6 0;
#X connect 8 0 3 1;
